PathFileType	4	(X/Y/Z)	s04c0101.trc
DataRate	CameraRate	NumFrames	NumMarkers	Units	OrigDataRate	OrigDataStartFrame	OrigNumFrames
200	200	6	51	mm	200	1000	2000
Frame#	Time	racr			lacr			c7			jug			rlel			rdr			llel			ldr			s2			lic			ric			lasi			rasi			rpsi			lpsi			rgt			lgt			rth1			rth2			rth3			rth4			rlfc			rmfc			rsh1			rsh2			rsh3			rsh4			rlmal			rmmal			rcal			rtoe			rmt5			lth1			lth2			lth4			lth3			llfc			lmfc			lsh1			lsh2			lsh3			lsh4			llmal			lmmal			lcal			ltoe			lmt1			lmt5			SBIKE			LBIKE			RBIKE			
		X1	Y1	Z1	X2	Y2	Z2	X3	Y3	Z3	X4	Y4	Z4	X5	Y5	Z5	X6	Y6	Z6	X7	Y7	Z7	X8	Y8	Z8	X9	Y9	Z9	X10	Y10	Z10	X11	Y11	Z11	X12	Y12	Z12	X13	Y13	Z13	X14	Y14	Z14	X15	Y15	Z15	X16	Y16	Z16	X17	Y17	Z17	X18	Y18	Z18	X19	Y19	Z19	X20	Y20	Z20	X21	Y21	Z21	X22	Y22	Z22	X23	Y23	Z23	X24	Y24	Z24	X25	Y25	Z25	X26	Y26	Z26	X27	Y27	Z27	X28	Y28	Z28	X29	Y29	Z29	X30	Y30	Z30	X31	Y31	Z31	X32	Y32	Z32	X33	Y33	Z33	X34	Y34	Z34	X35	Y35	Z35	X36	Y36	Z36	X37	Y37	Z37	X38	Y38	Z38	X39	Y39	Z39	X40	Y40	Z40	X41	Y41	Z41	X42	Y42	Z42	X43	Y43	Z43	X44	Y44	Z44	X45	Y45	Z45	X46	Y46	Z46	X47	Y47	Z47	X48	Y48	Z48	X49	Y49	Z49	X50	Y50	Z50	X51	Y51	Z51	
1000	5.0000	475.001255	1402.748780	-156.679019	498.476629	1392.059848	-413.278017	458.844095	1455.006204	-292.429416	425.907702	1302.454110	-293.396665	466.389765	1103.356819	-29.546667	685.833369	918.236963	-115.002172	496.988225	1127.207570	-561.937081	688.749382	910.438030	-485.410340	-74.752147	1169.186084	-305.163625	81.371748	1193.507545	-466.324108	68.478418	1208.459506	-143.683423	123.278806	1155.034330	-415.217462	110.242029	1181.991088	-134.525552	-57.391007	1217.874095	-264.805182	-53.445611	1213.768696	-341.463300	39.184612	1148.121957	-119.592685	46.257186	1079.894642	-474.251407	167.519724	1060.995164	-101.794463	253.060932	1036.795435	-102.865231	315.210953	979.049738	-95.573558	268.928658	1063.944290	-122.912950	412.843042	877.874025	-111.039787	404.556783	853.538224	-226.300994	315.754755	802.196139	-94.284079	264.560584	730.665250	-113.239612	185.242770	700.337699	-126.869740	289.049847	708.413503	-133.180675	77.007416	594.412407	-141.348808	108.549332	584.677233	-222.887253	8.476483	606.153136	-188.573129	236.525285	408.154561	-158.118301	165.162264	433.990114	-109.852802	95.926686	992.822209	-488.117793	163.235800	937.911807	-490.537111	192.621826	959.641245	-487.021042	195.431532	855.224144	-484.365209	277.921793	712.135678	-467.024813	302.501750	691.952736	-354.156047	278.341258	584.794894	-486.090557	288.405289	501.284960	-465.220226	257.644456	418.102789	-465.619703	315.178170	501.306950	-435.313816	239.244432	271.250712	-462.468507	229.165595	272.518138	-375.321832	157.712703	251.933489	-428.304304	458.265693	225.591785	-407.518748	381.442086	208.934800	-364.877798	391.794919	191.888578	-474.742281	-187.050256	937.371074	-286.888558	-18.151938	78.897641	-484.729023	-18.121312	79.343142	-83.919653	
1001	5.0050	474.646060	1403.236182	-155.394271	499.144650	1393.817281	-411.639011	458.717811	1456.155191	-291.609363	426.483059	1303.470257	-293.276385	465.285871	1103.354326	-29.804232	686.365109	919.517686	-114.855556	500.580824	1129.550926	-561.223339	689.648547	910.057714	-485.148017	-74.045727	1170.628615	-307.435931	82.925597	1194.245772	-467.170823	67.189652	1211.251546	-144.812483	123.907395	1155.331650	-415.655567	108.916746	1184.875079	-135.135762	-57.116781	1219.759185	-267.390603	-53.457082	1215.579196	-343.442087	38.810153	1151.763925	-120.480626	46.085916	1080.330330	-475.246687	168.052694	1066.497465	-102.475404	254.326471	1043.632259	-104.249166	317.643145	987.244600	-96.739618	269.665470	1071.037700	-124.560108	417.374158	887.691649	-112.738892	409.425879	862.683633	-227.187252	320.652131	811.738602	-95.694295	269.661573	739.677074	-114.994116	190.825103	708.898400	-127.678296	294.527641	717.507125	-134.001128	83.929992	601.584657	-142.236118	115.179984	592.173790	-223.355682	15.166234	612.934050	-188.933359	243.943878	416.192933	-158.536524	173.033905	441.975736	-110.206491	93.119979	992.653228	-489.239402	158.866199	935.899734	-492.149040	188.824522	956.840094	-488.860598	188.990382	852.335965	-486.136278	268.944999	707.108778	-468.708878	292.946594	687.632448	-355.925659	269.609646	579.737906	-487.339551	280.258691	496.235111	-466.274557	249.958306	412.920680	-466.175478	307.105132	496.567710	-436.340832	232.427947	266.108874	-462.302616	223.092520	267.187806	-375.075683	151.074215	247.713694	-427.860858	451.300346	216.901839	-407.453428	374.279757	201.343745	-364.687883	384.200816	184.191828	-474.629261	-187.021065	937.496115	-286.880976	-18.143509	78.926174	-484.733070	-18.110779	79.404697	-83.934899	
1002	5.0100	474.357827	1403.387411	-154.090669	499.809584	1395.430871	-409.939844	458.696784	1457.160889	-290.715297	426.934108	1304.399848	-293.247297	463.609743	1103.190957	-29.535244	686.710194	920.797083	-114.630713	504.008958	1131.756623	-560.443471	689.687649	909.252423	-484.159862	-73.843806	1172.238220	-309.439402	84.485553	1194.996875	-468.076511	65.822330	1213.977368	-145.954763	124.633388	1155.587905	-416.287670	107.395154	1187.672036	-135.365206	-55.707427	1221.368893	-270.700274	-52.376830	1217.045918	-346.020882	38.155309	1155.353704	-121.264609	45.715541	1080.963591	-476.191970	168.982766	1071.988053	-103.717596	255.647913	1050.778219	-105.502224	319.988977	995.616895	-97.896295	270.330989	1078.341115	-126.240180	421.737101	897.538756	-113.939508	413.497304	872.869053	-230.367888	325.515377	821.320957	-97.083815	275.551620	748.870811	-114.871000	196.299159	717.375714	-128.098218	300.227521	726.410727	-134.356288	90.972399	608.290246	-142.750926	122.152372	599.064522	-223.764592	22.089692	619.117508	-189.011377	252.451827	423.988776	-158.948337	181.561044	449.796982	-110.701287	90.068913	992.789061	-490.039108	154.435077	934.400090	-493.739998	184.903150	954.673661	-490.776277	182.504136	850.247013	-487.646663	260.042573	702.810924	-469.968561	284.506657	683.831065	-356.867340	260.759704	575.104926	-488.443777	271.954984	491.730570	-467.003455	241.992183	408.331427	-466.589239	298.866450	492.340374	-437.227330	225.389712	261.584506	-461.966184	216.441795	262.530821	-374.785925	144.138442	244.186877	-427.249806	443.947303	208.537297	-407.519774	366.742234	194.156976	-364.577043	376.211136	177.090201	-474.560418	-186.956257	937.601036	-287.048522	-18.143580	78.970481	-484.747558	-18.080171	79.452845	-83.958763	
1003	5.0150	474.041546	1403.393445	-152.709536	500.555486	1396.742836	-408.267062	458.722543	1457.957964	-289.812469	427.389962	1305.133796	-293.124967	461.794788	1102.765661	-29.562657	686.619270	921.877032	-114.187227	507.187605	1133.895902	-559.746089	690.022401	908.751032	-483.837257	-73.756313	1173.630996	-311.164427	86.024406	1195.882662	-468.979315	64.361856	1216.526178	-147.079681	125.344974	1155.912763	-416.992278	105.858681	1190.085810	-136.437685	-56.751474	1223.799830	-271.885103	-51.949932	1218.622461	-347.905135	37.710227	1159.058013	-121.910682	45.157026	1081.859213	-477.152962	170.001128	1077.555336	-104.884808	256.913762	1058.102863	-106.748228	322.254220	1004.055693	-99.104737	270.978730	1085.652184	-128.022618	425.886302	907.571446	-115.164526	418.054273	882.723064	-230.553158	330.399995	830.602899	-98.377915	280.977276	757.539631	-116.175948	202.239672	725.266868	-128.865335	305.980151	735.384318	-135.568962	98.336869	614.617226	-143.075969	129.540993	605.505786	-224.672119	29.059349	624.877738	-189.004093	261.345774	431.516149	-159.297308	190.381165	456.841610	-111.076482	87.068035	993.210772	-490.640181	149.957355	933.352268	-495.219250	181.026102	952.881926	-492.650864	176.213412	848.525266	-489.006226	251.120989	699.134125	-471.312577	276.279954	680.491256	-357.802537	251.978774	570.974626	-489.435211	263.503886	487.751781	-467.639873	233.820284	404.209901	-466.836517	290.566959	488.511810	-438.011960	218.111367	257.907453	-461.607574	209.554717	258.509473	-374.420164	136.875044	241.409656	-426.574758	436.214046	200.656738	-407.539412	358.798491	187.840192	-364.334365	367.836971	170.357679	-474.425183	-186.985245	937.627141	-287.321707	-18.126920	79.029674	-484.789688	-18.059827	79.488458	-83.975248	
1004	5.0200	473.728737	1403.240893	-151.347792	501.277514	1397.899968	-406.643200	458.747256	1458.626180	-288.770247	427.784639	1305.757925	-292.926851	460.163850	1101.976901	-30.020403	685.636160	923.110348	-113.790116	509.944015	1135.815597	-559.083306	690.239511	908.337037	-483.587616	-73.862200	1175.221732	-313.073448	87.318910	1196.630477	-469.766669	63.402172	1218.227606	-149.615779	125.719402	1156.084026	-417.545092	104.263451	1191.211837	-137.919948	-55.197247	1224.726619	-275.289644	-50.877563	1219.968666	-350.731137	36.777416	1162.409346	-122.462326	44.394461	1082.902161	-478.078710	170.953141	1083.308281	-106.360592	257.991400	1065.376304	-108.061787	324.309981	1012.513894	-100.295452	271.372663	1092.945371	-129.854807	429.848317	917.693554	-116.371356	421.890568	892.830056	-232.071007	335.300918	839.707673	-99.784114	286.654498	766.040110	-117.291104	208.274461	732.804551	-129.592923	311.866131	744.471895	-136.348868	106.009035	620.305476	-143.337429	137.251339	611.809895	-224.343630	36.963644	629.907175	-189.564487	270.788286	438.554485	-159.709105	199.341279	463.265336	-111.290147	84.172146	993.976339	-491.120243	145.664539	932.635320	-496.653016	177.206379	951.496671	-494.431391	170.112321	847.237432	-490.256059	242.328861	696.096640	-472.522862	268.070470	677.333544	-359.464956	243.266554	567.396004	-490.242232	255.105004	484.235451	-468.210929	225.535565	400.702864	-467.019062	282.292796	485.230726	-438.744881	210.384230	254.635110	-461.216009	202.284815	255.166661	-373.951894	129.298642	239.063331	-425.931165	428.025497	193.428895	-407.574408	350.556064	181.625164	-364.226870	358.996653	164.329488	-474.424644	-187.013295	937.689627	-287.435966	-18.129563	79.063767	-484.820482	-17.868538	79.377824	-84.123072	
1005	5.0250	473.308333	1403.039856	-149.942407	501.977184	1398.763769	-405.018986	458.856264	1459.039927	-287.552342	428.006651	1306.179749	-292.396016	458.212152	1101.083125	-30.100264	685.011632	923.682012	-113.617314	512.258160	1137.497396	-558.582294	690.445539	908.090002	-483.557820	-74.096089	1176.717033	-314.862878	88.457633	1197.307805	-470.585138	61.944986	1220.171352	-150.764995	126.048836	1156.222883	-418.201848	102.545732	1192.908197	-138.657650	-55.559561	1226.430669	-277.205270	-50.442425	1221.051388	-352.935982	35.923032	1165.766551	-123.103547	43.580002	1083.952127	-478.990938	171.547636	1089.092644	-107.334640	258.862651	1072.672010	-109.344587	326.074572	1020.894011	-101.446890	271.619503	1099.972021	-131.790976	433.619212	927.751168	-117.563055	425.805763	901.969940	-233.163458	339.990459	848.677141	-101.026475	292.329568	774.410883	-117.958279	214.327059	739.863497	-130.228271	317.892059	752.676616	-136.465927	113.990800	625.435691	-143.561991	145.088994	617.275920	-224.310261	44.845887	634.384935	-189.602470	280.400802	444.988546	-160.014190	208.749739	468.947141	-111.586002	81.468620	994.846806	-491.656014	141.590574	932.182047	-498.004943	173.556530	950.350666	-496.058449	164.418286	846.284708	-491.454032	234.008852	693.419589	-473.514135	260.651755	674.800000	-360.382758	234.757706	564.431244	-490.870286	246.796067	481.276588	-468.677647	217.224856	397.768269	-467.154498	274.118564	482.300059	-439.322782	202.157398	251.677835	-460.892047	194.287294	252.403678	-373.712688	121.357191	237.248070	-425.282087	419.411128	186.791637	-407.707334	341.931417	176.031800	-364.285448	349.766691	158.914752	-474.354568	-187.058494	937.702209	-287.516907	-18.147986	79.090764	-484.829262	-17.879071	79.410934	-84.149832	
